<?xml version="1.0" encoding="us-ascii" standalone="no"?><svg xmlns="http://www.w3.org/2000/svg" xmlns:xlink="http://www.w3.org/1999/xlink" contentStyleType="text/css" height="324px" preserveAspectRatio="none" style="width:447px;height:324px;background:#FFFFFF;" version="1.1" viewBox="0 0 447 324" width="447px" zoomAndPan="magnify"><defs/><g><g id="cluster_##4"><rect fill="none" height="311" rx="2.5" ry="2.5" style="stroke:#181818;stroke-width:1.0;" width="248" x="92" y="7"/></g><g id="elem_&#12525;&#12464;&#12452;&#12531;&#12377;&#12427;"><ellipse cx="215.8142" cy="38.7628" fill="#F1F1F1" rx="66.8142" ry="15.7628" style="stroke:#181818;stroke-width:0.5;"/><text fill="#000000" font-family="sans-serif" font-size="14" lengthAdjust="spacing" textLength="84" x="170.8142" y="42.5104">&#12525;&#12464;&#12452;&#12531;&#12377;&#12427;</text></g><g id="elem_&#12501;&#12449;&#12452;&#12523;&#12398;&#19968;&#35239;&#12434;&#21462;&#24471;&#12377;&#12427;"><ellipse cx="215.7923" cy="112.7585" fill="#F1F1F1" rx="101.7923" ry="22.7585" style="stroke:#181818;stroke-width:0.5;"/><text fill="#000000" font-family="sans-serif" font-size="14" lengthAdjust="spacing" textLength="168" x="131.7923" y="115.6051">&#12501;&#12449;&#12452;&#12523;&#12398;&#19968;&#35239;&#12434;&#21462;&#24471;&#12377;&#12427;</text></g><g id="elem_&#12501;&#12449;&#12452;&#12523;&#12434;&#12480;&#12454;&#12531;&#12525;&#12540;&#12489;&#12377;&#12427;"><ellipse cx="216.209" cy="195.0418" fill="#F1F1F1" rx="108.209" ry="24.0418" style="stroke:#181818;stroke-width:0.5;"/><text fill="#000000" font-family="sans-serif" font-size="14" lengthAdjust="spacing" textLength="182" x="125.209" y="197.8885">&#12501;&#12449;&#12452;&#12523;&#12434;&#12480;&#12454;&#12531;&#12525;&#12540;&#12489;&#12377;&#12427;</text></g><g id="elem_&#12501;&#12449;&#12452;&#12523;&#12434;&#12450;&#12483;&#12503;&#12525;&#12540;&#12489;&#12377;&#12427;"><ellipse cx="216.209" cy="278.0418" fill="#F1F1F1" rx="108.209" ry="24.0418" style="stroke:#181818;stroke-width:0.5;"/><text fill="#000000" font-family="sans-serif" font-size="14" lengthAdjust="spacing" textLength="182" x="125.209" y="280.8885">&#12501;&#12449;&#12452;&#12523;&#12434;&#12450;&#12483;&#12503;&#12525;&#12540;&#12489;&#12377;&#12427;</text></g><!--entity ???--><g id="elem_&#31649;&#29702;&#32773;"><ellipse cx="27" cy="124.5" fill="#F1F1F1" rx="8" ry="8" style="stroke:#181818;stroke-width:0.5;"/><path d="M27,132.5 L27,159.5 M14,140.5 L40,140.5 M27,159.5 L14,174.5 M27,159.5 L40,174.5 " fill="none" style="stroke:#181818;stroke-width:0.5;"/><text fill="#000000" font-family="sans-serif" font-size="14" lengthAdjust="spacing" textLength="42" x="6" y="188.9951">&#31649;&#29702;&#32773;</text></g><!--entity ????--><g id="elem_&#12513;&#12531;&#12496;&#12540;"><ellipse cx="412" cy="83.5" fill="#F1F1F1" rx="8" ry="8" style="stroke:#181818;stroke-width:0.5;"/><path d="M412,91.5 L412,118.5 M399,99.5 L425,99.5 M412,118.5 L399,133.5 M412,118.5 L425,133.5 " fill="none" style="stroke:#181818;stroke-width:0.5;"/><text fill="#000000" font-family="sans-serif" font-size="14" lengthAdjust="spacing" textLength="56" x="384" y="147.9951">&#12513;&#12531;&#12496;&#12540;</text></g><!--link ??? to ??????--><g id="link_&#31649;&#29702;&#32773;_&#12525;&#12464;&#12452;&#12531;&#12377;&#12427;"><path d="M46.1922,115.84 C55.4674,100.124 68.1655,83.048 84,72 C102.9549,58.775 126.729,50.841 148.803,46.086 " fill="none" id="&#31649;&#29702;&#32773;-to-&#12525;&#12464;&#12452;&#12531;&#12377;&#12427;" style="stroke:#181818;stroke-width:1.0;"/><polygon fill="#181818" points="153.779,45.06,144.1571,42.9577,148.8818,46.0686,145.7709,50.7932,153.779,45.06" style="stroke:#181818;stroke-width:1.0;"/></g><!--link ??? to ????????????--><g id="link_&#31649;&#29702;&#32773;_&#12501;&#12449;&#12452;&#12523;&#12398;&#19968;&#35239;&#12434;&#21462;&#24471;&#12377;&#12427;"><path d="M48.0123,149.612 C69.298,144.945 104.3106,137.269 136.792,130.147 " fill="none" id="&#31649;&#29702;&#32773;-to-&#12501;&#12449;&#12452;&#12523;&#12398;&#19968;&#35239;&#12434;&#21462;&#24471;&#12377;&#12427;" style="stroke:#181818;stroke-width:1.0;"/><polygon fill="#181818" points="141.981,129.009,132.333,127.0303,137.0971,130.0803,134.0471,134.8445,141.981,129.009" style="stroke:#181818;stroke-width:1.0;"/></g><!--link ??? to ?????????????--><g id="link_&#31649;&#29702;&#32773;_&#12501;&#12449;&#12452;&#12523;&#12434;&#12480;&#12454;&#12531;&#12525;&#12540;&#12489;&#12377;&#12427;"><path d="M48.0123,158.388 C68.5825,162.898 101.9724,170.219 133.509,177.133 " fill="none" id="&#31649;&#29702;&#32773;-to-&#12501;&#12449;&#12452;&#12523;&#12434;&#12480;&#12454;&#12531;&#12525;&#12540;&#12489;&#12377;&#12427;" style="stroke:#181818;stroke-width:1.0;"/><polygon fill="#181818" points="138.552,178.239,130.6181,172.4035,133.6681,177.1677,128.904,180.2177,138.552,178.239" style="stroke:#181818;stroke-width:1.0;"/></g><!--link ??? to ?????????????--><g id="link_&#31649;&#29702;&#32773;_&#12501;&#12449;&#12452;&#12523;&#12434;&#12450;&#12483;&#12503;&#12525;&#12540;&#12489;&#12377;&#12427;"><path d="M46.403,192.2 C55.7172,208.028 68.3875,225.369 84,237 C97.4222,246.9994 113.34,254.5981 129.373,260.3608 " fill="none" id="&#31649;&#29702;&#32773;-to-&#12501;&#12449;&#12452;&#12523;&#12434;&#12450;&#12483;&#12503;&#12525;&#12540;&#12489;&#12377;&#12427;" style="stroke:#181818;stroke-width:1.0;"/><polygon fill="#181818" points="134.351,262.0909,127.163,255.358,129.6281,260.4495,124.5366,262.9146,134.351,262.0909" style="stroke:#181818;stroke-width:1.0;"/></g><!--reverse link ?????? to ????--><g id="link_&#12525;&#12464;&#12452;&#12531;&#12377;&#12427;_&#12513;&#12531;&#12496;&#12540;"><path d="M275.475,49.398 C298.629,54.62 325.126,62.008 348,72 C360.437,77.433 373.166,85.218 383.898,92.548 " fill="none" id="&#12525;&#12464;&#12452;&#12531;&#12377;&#12427;-backto-&#12513;&#12531;&#12496;&#12540;" style="stroke:#181818;stroke-width:1.0;"/><polygon fill="#181818" points="270.588,48.317,278.5098,54.169,275.4696,49.3985,280.2401,46.3583,270.588,48.317" style="stroke:#181818;stroke-width:1.0;"/></g><!--reverse link ????????????? to ????--><g id="link_&#12501;&#12449;&#12452;&#12523;&#12434;&#12480;&#12454;&#12531;&#12525;&#12540;&#12489;&#12377;&#12427;_&#12513;&#12531;&#12496;&#12540;"><path d="M290.413,175.097 C309.535,168.936 329.855,161.497 348,153 C360.32,147.231 373.132,139.465 383.96,132.311 " fill="none" id="&#12501;&#12449;&#12452;&#12523;&#12434;&#12480;&#12454;&#12531;&#12525;&#12540;&#12489;&#12377;&#12427;-backto-&#12513;&#12531;&#12496;&#12540;" style="stroke:#181818;stroke-width:1.0;"/><polygon fill="#181818" points="285.58,176.636,295.3694,177.7166,290.3443,175.1189,292.942,170.0937,285.58,176.636" style="stroke:#181818;stroke-width:1.0;"/></g><!--reverse link ???????????? to ????--><g id="link_&#12501;&#12449;&#12452;&#12523;&#12398;&#19968;&#35239;&#12434;&#21462;&#24471;&#12377;&#12427;_&#12513;&#12531;&#12496;&#12540;"><path d="M323.37,113 C345.845,113 367.642,113 383.875,113 " fill="none" id="&#12501;&#12449;&#12452;&#12523;&#12398;&#19968;&#35239;&#12434;&#21462;&#24471;&#12377;&#12427;-backto-&#12513;&#12531;&#12496;&#12540;" style="stroke:#181818;stroke-width:1.0;"/><polygon fill="#181818" points="318.261,113,327.261,117,323.261,113,327.261,109,318.261,113" style="stroke:#181818;stroke-width:1.0;"/></g><!--SRC=[oqbDAr4eoLSeoapFA558oInAJIx9pC_ZuafCBialKdY-Rk7p2Mql6bgX_CVD2nytRtxSFE5nynukaDh4lFISL8LgBWKWW2jMqDMrKz1utBpsSTE6nqrBG3eQPpvkwjR4hcpguwQ5O6Mh7pUkUxAZuSMovO-R9Ztjd_PqttHYDJPDUjpSyBXf6TXrQu6kUzpSIOBUfaMFcviVDq_7gXURJnHiT7LHGmEgaZWt4QCTLrXWwgq50000]--></g></svg>