<?xml version="1.0" encoding="us-ascii" standalone="no"?><svg xmlns="http://www.w3.org/2000/svg" xmlns:xlink="http://www.w3.org/1999/xlink" contentStyleType="text/css" height="257px" preserveAspectRatio="none" style="width:447px;height:257px;background:#FFFFFF;" version="1.1" viewBox="0 0 447 257" width="447px" zoomAndPan="magnify"><defs/><g><g id="cluster_##4"><rect fill="none" height="244" rx="2.5" ry="2.5" style="stroke:#181818;stroke-width:1.0;" width="248" x="92" y="7"/></g><g id="elem_&#12501;&#12449;&#12452;&#12523;&#12434;&#12450;&#12483;&#12503;&#12525;&#12540;&#12489;&#12377;&#12427;"><ellipse cx="216.209" cy="47.0418" fill="#F1F1F1" rx="108.209" ry="24.0418" style="stroke:#181818;stroke-width:0.5;"/><text fill="#000000" font-family="sans-serif" font-size="14" lengthAdjust="spacing" textLength="182" x="125.209" y="49.8885">&#12501;&#12449;&#12452;&#12523;&#12434;&#12450;&#12483;&#12503;&#12525;&#12540;&#12489;&#12377;&#12427;</text></g><g id="elem_&#12501;&#12449;&#12452;&#12523;&#12398;&#19968;&#35239;&#12434;&#21462;&#24471;&#12377;&#12427;"><ellipse cx="215.7923" cy="128.7585" fill="#F1F1F1" rx="101.7923" ry="22.7585" style="stroke:#181818;stroke-width:0.5;"/><text fill="#000000" font-family="sans-serif" font-size="14" lengthAdjust="spacing" textLength="168" x="131.7923" y="131.6051">&#12501;&#12449;&#12452;&#12523;&#12398;&#19968;&#35239;&#12434;&#21462;&#24471;&#12377;&#12427;</text></g><g id="elem_&#12501;&#12449;&#12452;&#12523;&#12434;&#12480;&#12454;&#12531;&#12525;&#12540;&#12489;&#12377;&#12427;"><ellipse cx="216.209" cy="211.0418" fill="#F1F1F1" rx="108.209" ry="24.0418" style="stroke:#181818;stroke-width:0.5;"/><text fill="#000000" font-family="sans-serif" font-size="14" lengthAdjust="spacing" textLength="182" x="125.209" y="213.8885">&#12501;&#12449;&#12452;&#12523;&#12434;&#12480;&#12454;&#12531;&#12525;&#12540;&#12489;&#12377;&#12427;</text></g><!--entity ???--><g id="elem_&#31649;&#29702;&#32773;"><ellipse cx="27" cy="99.5" fill="#F1F1F1" rx="8" ry="8" style="stroke:#181818;stroke-width:0.5;"/><path d="M27,107.5 L27,134.5 M14,115.5 L40,115.5 M27,134.5 L14,149.5 M27,134.5 L40,149.5 " fill="none" style="stroke:#181818;stroke-width:0.5;"/><text fill="#000000" font-family="sans-serif" font-size="14" lengthAdjust="spacing" textLength="42" x="6" y="163.9951">&#31649;&#29702;&#32773;</text></g><!--entity ????--><g id="elem_&#12513;&#12531;&#12496;&#12540;"><ellipse cx="412" cy="140.5" fill="#F1F1F1" rx="8" ry="8" style="stroke:#181818;stroke-width:0.5;"/><path d="M412,148.5 L412,175.5 M399,156.5 L425,156.5 M412,175.5 L399,190.5 M412,175.5 L425,190.5 " fill="none" style="stroke:#181818;stroke-width:0.5;"/><text fill="#000000" font-family="sans-serif" font-size="14" lengthAdjust="spacing" textLength="56" x="384" y="204.9951">&#12513;&#12531;&#12496;&#12540;</text></g><!--link ??? to ?????????????--><g id="link_&#31649;&#29702;&#32773;_&#12501;&#12449;&#12452;&#12523;&#12434;&#12450;&#12483;&#12503;&#12525;&#12540;&#12489;&#12377;&#12427;"><path d="M48.2104,111.69 C58.4188,103.621 71.3083,94.409 84,88 C100.9164,79.457 119.964,72.265 138.186,66.41 " fill="none" id="&#31649;&#29702;&#32773;-to-&#12501;&#12449;&#12452;&#12523;&#12434;&#12450;&#12483;&#12503;&#12525;&#12540;&#12489;&#12377;&#12427;" style="stroke:#181818;stroke-width:1.0;"/><polygon fill="#181818" points="143.302,64.793,133.5153,63.6886,138.534,66.2985,135.9241,71.3173,143.302,64.793" style="stroke:#181818;stroke-width:1.0;"/></g><!--link ??? to ????????????--><g id="link_&#31649;&#29702;&#32773;_&#12501;&#12449;&#12452;&#12523;&#12398;&#19968;&#35239;&#12434;&#21462;&#24471;&#12377;&#12427;"><path d="M48.0123,129 C63.1663,129 85.2778,129 108.48,129 " fill="none" id="&#31649;&#29702;&#32773;-to-&#12501;&#12449;&#12452;&#12523;&#12398;&#19968;&#35239;&#12434;&#21462;&#24471;&#12377;&#12427;" style="stroke:#181818;stroke-width:1.0;"/><polygon fill="#181818" points="113.761,129,104.761,125,108.761,129,104.761,133,113.761,129" style="stroke:#181818;stroke-width:1.0;"/></g><!--link ??? to ?????????????--><g id="link_&#31649;&#29702;&#32773;_&#12501;&#12449;&#12452;&#12523;&#12434;&#12480;&#12454;&#12531;&#12525;&#12540;&#12489;&#12377;&#12427;"><path d="M48.0311,145.625 C58.2996,153.53 71.2935,162.621 84,169 C101.3643,177.717 120.921,185.1352 139.524,191.1997 " fill="none" id="&#31649;&#29702;&#32773;-to-&#12501;&#12449;&#12452;&#12523;&#12434;&#12480;&#12454;&#12531;&#12525;&#12540;&#12489;&#12377;&#12427;" style="stroke:#181818;stroke-width:1.0;"/><polygon fill="#181818" points="144.743,192.8743,137.3948,186.3165,139.9819,191.3471,134.9513,193.9343,144.743,192.8743" style="stroke:#181818;stroke-width:1.0;"/></g><!--reverse link ????????????? to ????--><g id="link_&#12501;&#12449;&#12452;&#12523;&#12434;&#12480;&#12454;&#12531;&#12525;&#12540;&#12489;&#12377;&#12427;_&#12513;&#12531;&#12496;&#12540;"><path d="M300.001,193.4586 C330.149,187.087 362.14,180.326 383.993,175.7076 " fill="none" id="&#12501;&#12449;&#12452;&#12523;&#12434;&#12480;&#12454;&#12531;&#12525;&#12540;&#12489;&#12377;&#12427;-backto-&#12513;&#12531;&#12496;&#12540;" style="stroke:#181818;stroke-width:1.0;"/><polygon fill="#181818" points="294.789,194.56,304.4218,196.6118,299.6809,193.5257,302.7669,188.7848,294.789,194.56" style="stroke:#181818;stroke-width:1.0;"/></g><!--reverse link ???????????? to ????--><g id="link_&#12501;&#12449;&#12452;&#12523;&#12398;&#19968;&#35239;&#12434;&#21462;&#24471;&#12377;&#12427;_&#12513;&#12531;&#12496;&#12540;"><path d="M295.882,145.671 C327.097,152.268 360.908,159.414 383.757,164.242 " fill="none" id="&#12501;&#12449;&#12452;&#12523;&#12398;&#19968;&#35239;&#12434;&#21462;&#24471;&#12377;&#12427;-backto-&#12513;&#12531;&#12496;&#12540;" style="stroke:#181818;stroke-width:1.0;"/><polygon fill="#181818" points="290.897,144.617,298.8764,150.3901,295.7891,145.65,300.5292,142.5627,290.897,144.617" style="stroke:#181818;stroke-width:1.0;"/></g><!--SRC=[oqbDAr4eoLSeoapFA558oInAJIx9pC_ZuafCBialKh1wlcxXymbjBnfQhQ0YZviNFcxU_BXvmkFcFLmWrObvwJcf2jLS2WeASCKAkhfs2XgFcwS-Rbhuk6d9u-RLZvicFMvQzBYv-N7pzCVDQu6Q7pTtFcwS-RYfMvEGriPrJtOql5Ys76Z6q_vfJ_TD9r8VqChcXiTDoy3knRIIUDKADhgwg1x7r8xBaPXwQm40]--></g></svg>